<svg xmlns="http://www.w3.org/2000/svg" viewBox="0 0 512 512" xmlns:v="https://vecta.io/nano"><path d="M256 0C114.837 0 0 114.837 0 256s114.837 256 256 256 256-114.837 256-256S397.163 0 256 0zm106.667 362.667H149.333c-11.797 0-21.333-9.557-21.333-21.333s9.536-21.333 21.333-21.333h213.333c11.797 0 21.333 9.557 21.333 21.333a21.33 21.33 0 0 1-21.332 21.333zm0-85.334H149.333C137.536 277.333 128 267.776 128 256s9.536-21.333 21.333-21.333h213.333c11.797 0 21.333 9.557 21.333 21.333a21.33 21.33 0 0 1-21.332 21.333zm0-85.333H149.333C137.536 192 128 182.443 128 170.667s9.536-21.333 21.333-21.333h213.333c11.797 0 21.333 9.557 21.333 21.333A21.33 21.33 0 0 1 362.667 192z"/></svg>